<?xml version="1.0" standalone="no"?>
<!DOCTYPE svg PUBLIC "-//W3C//DTD SVG 20010904//EN"
 "http://www.w3.org/TR/2001/REC-SVG-20010904/DTD/svg10.dtd">
<svg version="1.0" xmlns="http://www.w3.org/2000/svg"
 width="1500.000000pt" height="607.000000pt" viewBox="0 0 1500.000000 607.000000"
 preserveAspectRatio="xMidYMid meet">

<g transform="translate(0.000000,607.000000) scale(0.100000,-0.100000)"
fill="#000000" stroke="none">
<path d="M1663 3733 c-12 -10 -27 -31 -34 -48 -17 -43 -13 -1369 4 -1405 20
-42 136 -65 201 -40 40 15 46 60 46 363 l0 277 23 0 c32 0 637 -79 660 -86 37
-12 42 -42 47 -287 6 -283 -2 -267 127 -267 75 0 86 2 108 24 l24 24 -4 687
-3 687 -29 30 c-60 63 -139 77 -190 34 l-28 -24 -8 -299 c-10 -340 -8 -333
-87 -333 -95 0 -566 41 -592 51 -14 6 -31 23 -36 37 -6 15 -13 118 -16 229 -9
312 -25 354 -132 360 -46 3 -64 0 -81 -14z"/>
<path d="M3578 3738 c-17 -14 -54 -93 -345 -753 -264 -596 -263 -592 -263
-646 0 -56 24 -82 91 -99 78 -20 99 -2 170 145 43 89 66 126 82 131 31 10 546
12 581 2 44 -11 83 -54 128 -140 42 -82 104 -148 139 -148 61 0 115 65 106
129 -3 20 -58 149 -122 286 -64 138 -160 351 -211 475 -52 124 -129 307 -172
408 -42 101 -85 192 -95 203 -20 22 -65 25 -89 7z m80 -555 c30 -60 139 -333
152 -382 9 -35 9 -45 -2 -52 -7 -5 -102 -9 -210 -9 -176 0 -198 2 -198 16 0
16 194 428 213 452 16 20 25 14 45 -25z"/>
<path d="M4608 3738 c-9 -7 -21 -29 -27 -48 -14 -44 -198 -1135 -211 -1251
-11 -95 -3 -139 31 -175 67 -72 175 -14 208 111 6 22 29 182 51 355 22 173 43
323 46 333 3 9 11 17 19 17 14 0 45 -69 178 -390 137 -330 157 -374 184 -402
72 -75 124 -13 271 322 27 63 82 189 122 280 87 199 90 204 100 194 4 -5 16
-70 25 -144 26 -207 93 -525 132 -621 29 -75 123 -108 186 -66 56 36 56 28
-18 382 -53 250 -67 326 -85 435 -21 128 -23 143 -45 320 -42 332 -52 360
-127 360 -33 0 -41 -5 -62 -37 -14 -21 -73 -153 -131 -293 -59 -140 -142 -328
-185 -417 -83 -172 -100 -190 -150 -163 -29 15 -203 374 -270 555 -118 322
-136 355 -194 355 -18 0 -39 -6 -48 -12z"/>
<path d="M6141 3738 c-13 -7 -34 -26 -45 -41 -21 -28 -21 -39 -26 -660 -3
-348 -2 -649 1 -671 13 -77 74 -130 149 -130 58 0 96 23 123 75 15 29 16 52
12 150 -3 64 -10 140 -14 168 -4 29 -8 77 -7 109 1 78 11 82 202 82 214 0 300
30 395 139 124 140 166 377 93 526 -55 112 -171 205 -300 241 -81 22 -547 32
-583 12z m530 -256 c40 -16 98 -70 118 -111 46 -89 34 -168 -34 -237 -56 -56
-114 -74 -237 -74 -117 0 -163 15 -175 57 -4 15 -8 104 -8 198 l0 169 25 8
c35 10 280 3 311 -10z"/>
<path d="M7238 3740 c-39 -23 -41 -55 -33 -754 8 -732 7 -722 65 -746 22 -9
37 -9 67 0 58 19 81 36 104 81 26 52 27 97 15 809 -9 581 -9 575 -66 605 -32
17 -126 20 -152 5z"/>
<path d="M8350 3743 c-50 -18 -64 -68 -33 -113 9 -14 69 -88 133 -165 212
-256 283 -349 312 -412 32 -67 51 -172 43 -231 -3 -20 -8 -139 -12 -263 -6
-245 -1 -287 43 -315 32 -21 90 -11 105 18 8 15 12 124 13 347 l1 326 27 52
c44 86 91 154 253 369 247 326 248 329 202 372 -34 32 -73 28 -109 -10 -17
-18 -107 -141 -200 -273 -93 -132 -177 -248 -186 -257 -20 -19 -48 -25 -78
-15 -13 5 -106 123 -219 277 -211 290 -236 315 -295 293z"/>
<path d="M9633 3730 c-54 -32 -55 -49 -50 -545 5 -501 8 -532 72 -663 21 -40
57 -93 84 -120 121 -121 366 -193 550 -162 196 33 360 187 406 381 21 92 22
1032 1 1084 -25 58 -104 58 -126 -1 -6 -15 -10 -209 -10 -482 0 -251 -4 -485
-9 -519 -32 -218 -228 -361 -446 -325 -178 29 -305 144 -350 317 -18 69 -20
320 -5 702 9 255 6 290 -32 330 -26 28 -43 29 -85 3z"/>
<path d="M10950 3732 c-52 -25 -61 -61 -55 -217 43 -1075 52 -1235 72 -1257
23 -26 109 -25 123 1 6 12 10 115 10 264 0 235 1 245 21 272 l22 27 141 -4
c130 -3 145 -5 197 -30 73 -36 113 -88 163 -212 52 -125 131 -272 167 -309 32
-31 81 -36 117 -11 43 29 33 54 -142 378 -50 93 -86 171 -86 188 0 23 12 36
71 80 81 59 147 141 180 226 18 44 23 78 23 152 1 85 -2 101 -28 155 -43 88
-154 195 -247 240 -67 32 -91 37 -254 55 -233 26 -446 27 -495 2z m366 -143
c231 -23 339 -57 412 -132 59 -60 84 -123 84 -209 0 -127 -73 -225 -195 -264
-39 -13 -104 -18 -268 -21 l-215 -5 -29 24 c-28 24 -28 26 -36 174 -7 139 -12
330 -10 381 1 12 11 31 23 43 26 24 70 25 234 9z"/>
<path d="M12670 3720 c-16 -17 -43 -65 -60 -108 -18 -42 -94 -216 -170 -387
-348 -780 -400 -901 -400 -923 0 -56 53 -86 109 -62 31 12 33 16 86 135 56
125 124 234 148 240 12 2 159 9 327 14 276 8 308 8 339 -7 30 -15 45 -38 111
-167 97 -194 103 -202 153 -216 38 -10 43 -9 59 11 37 46 26 89 -91 330 -118
245 -296 657 -389 901 -33 85 -69 173 -80 196 -40 78 -94 94 -142 43z m173
-552 c70 -161 127 -306 127 -321 0 -18 -11 -39 -29 -58 l-29 -29 -202 0 c-222
0 -247 5 -270 59 -15 38 -19 28 115 321 59 129 116 254 126 278 10 23 22 42
27 42 4 0 65 -132 135 -292z"/>
</g>
</svg>
