<?xml version="1.0" standalone="no"?>
<!DOCTYPE svg PUBLIC "-//W3C//DTD SVG 20010904//EN"
 "http://www.w3.org/TR/2001/REC-SVG-20010904/DTD/svg10.dtd">
<svg version="1.0" xmlns="http://www.w3.org/2000/svg"
 width="512.000000pt" height="512.000000pt" viewBox="0 0 512.000000 512.000000"
 preserveAspectRatio="xMidYMid meet">

<g transform="translate(0.000000,512.000000) scale(0.100000,-0.100000)"
fill="#000000" stroke="none">
<path d="M4533 5106 c-12 -9 -50 -60 -86 -114 -254 -386 -725 -711 -1272 -877
-149 -46 -329 -84 -545 -115 -113 -17 -252 -42 -310 -56 -698 -172 -1167 -733
-1206 -1440 -14 -261 42 -521 168 -772 58 -118 60 -124 42 -136 -67 -47 -217
-169 -324 -263 -456 -402 -741 -826 -792 -1180 -11 -78 -11 -84 9 -110 25 -35
74 -50 108 -35 34 16 54 50 66 118 68 385 399 820 948 1246 l113 88 108 -109
c445 -447 1159 -594 1825 -376 136 45 382 164 495 240 252 170 461 386 623
643 400 636 514 1496 332 2499 -56 309 -154 690 -189 730 -27 30 -83 40 -113
19z m-177 -612 c-107 -311 -280 -657 -465 -924 -128 -186 -330 -436 -342 -422
-3 4 -16 117 -28 252 -13 135 -27 268 -32 295 -16 89 -86 122 -148 69 -28 -23
-31 -31 -31 -82 1 -32 16 -208 34 -392 l34 -335 -51 -53 c-247 -256 -721 -613
-1122 -844 -224 -129 -659 -348 -693 -348 -15 0 -109 190 -140 286 -42 126
-62 238 -69 380 -28 598 324 1127 889 1335 129 47 220 68 443 100 324 47 513
91 745 174 325 116 602 278 860 501 52 45 108 96 124 113 16 17 31 29 33 27 2
-1 -17 -61 -41 -132z m267 -21 c135 -650 145 -1239 32 -1748 -204 -917 -851
-1554 -1675 -1650 -418 -49 -797 38 -1104 253 -99 69 -256 221 -237 229 83 34
584 294 709 369 l163 97 413 -78 c256 -48 423 -75 439 -71 60 15 88 92 52 143
-20 28 -33 32 -365 93 -151 28 -283 54 -293 58 -15 6 1 22 85 82 244 176 465
368 703 611 462 472 831 1072 1006 1631 19 59 37 108 40 108 3 0 17 -57 32
-127z"/>
</g>
</svg>
