<?xml version="1.0" standalone="no"?>
<!DOCTYPE svg PUBLIC "-//W3C//DTD SVG 20010904//EN"
 "http://www.w3.org/TR/2001/REC-SVG-20010904/DTD/svg10.dtd">
<svg version="1.0" xmlns="http://www.w3.org/2000/svg"
 width="512.000000pt" height="512.000000pt" viewBox="0 0 512.000000 512.000000"
 preserveAspectRatio="xMidYMid meet">

<g transform="translate(0.000000,512.000000) scale(0.100000,-0.100000)"
fill="#000000" stroke="none">
<path d="M774 5100 c-29 -12 -54 -49 -54 -80 0 -47 -30 -117 -66 -154 -45 -47
-82 -65 -152 -76 -64 -11 -102 -43 -102 -86 0 -32 42 -74 73 -74 46 0 128 -31
163 -62 45 -40 74 -96 81 -161 16 -132 150 -132 166 0 7 65 36 121 81 161 35
31 117 62 163 62 31 0 73 42 73 74 0 43 -38 75 -102 86 -70 11 -107 29 -152
76 -36 37 -66 107 -66 155 0 31 -34 75 -65 82 -11 3 -30 2 -41 -3z m67 -356
l37 -36 -39 -39 -39 -39 -39 39 -39 39 37 36 c19 20 38 36 40 36 3 0 22 -16
42 -36z"/>
<path d="M2050 5099 c-30 -12 -975 -952 -996 -991 -12 -23 -14 -180 -14 -1048
l0 -1021 25 -24 24 -25 1513 0 1513 0 502 503 503 502 0 1027 0 1027 -24 28
-24 28 -1499 2 c-961 1 -1507 -2 -1523 -8z m395 -549 l-400 -400 -365 0 -365
0 400 400 400 400 365 0 365 0 -400 -400z m942 -18 c-229 -230 -418 -420 -419
-422 -1 -3 -5 -177 -8 -387 l-5 -382 -69 45 c-38 24 -77 44 -87 44 -9 0 -65
-32 -123 -70 -59 -39 -111 -70 -116 -70 -5 0 -57 32 -116 70 -58 39 -114 70
-123 70 -10 0 -49 -20 -87 -44 l-69 -45 -3 347 -2 347 457 457 458 458 365 0
365 0 -418 -418z m1058 18 l-400 -400 -405 0 -405 0 400 400 400 400 405 0
405 0 -400 -400z m115 -1885 l-400 -400 0 885 0 885 398 398 397 397 3 -882 2
-883 -400 -400z m-2560 910 l0 -416 25 -24 c40 -40 71 -33 189 45 l106 70 106
-70 c68 -45 116 -70 134 -70 18 0 66 25 134 70 l106 70 106 -70 c118 -78 149
-85 189 -45 l25 24 0 416 0 415 440 0 440 0 0 -920 0 -920 -1400 0 -1400 0 0
920 0 920 400 0 400 0 0 -415z"/>
<path d="M0 1750 l0 -80 560 0 560 0 0 -560 0 -560 -560 0 -560 0 0 -80 0 -80
775 0 776 0 24 25 c14 13 25 31 25 40 0 13 17 15 110 15 l110 0 454 -227 c440
-220 455 -226 514 -226 33 0 75 6 93 13 19 7 432 245 919 529 633 369 897 527
926 557 43 44 74 120 74 180 0 62 -37 140 -90 187 -52 47 -103 67 -171 67 -24
0 -393 -61 -820 -135 -427 -74 -785 -135 -795 -135 -12 0 -107 88 -239 221
-121 122 -234 227 -252 235 -26 11 -111 14 -430 14 l-398 0 -17 30 c-9 17 -29
35 -43 40 -17 6 -308 10 -786 10 l-759 0 0 -80z m1440 -640 l0 -560 -80 0 -80
0 0 560 0 560 80 0 80 0 0 -560z m1257 148 c350 -352 353 -356 339 -433 -17
-87 -123 -142 -199 -104 -12 6 -120 108 -239 227 l-218 217 -57 -58 -58 -57
220 -220 c247 -248 281 -272 395 -278 87 -5 164 24 224 83 65 66 91 125 91
210 0 91 -24 151 -90 230 l-53 62 732 126 c402 70 741 127 754 127 44 0 81
-28 93 -70 15 -49 4 -78 -43 -113 -67 -50 -1754 -1027 -1783 -1033 -26 -5
-102 30 -493 225 l-463 231 -125 0 -124 0 0 480 0 480 383 0 382 0 332 -332z"/>
</g>
</svg>
